<?xml version="1.0" encoding="UTF-8"?>
<svg version="1.1" xmlns="http://www.w3.org/2000/svg" width="122" height="123">
<path d="M0 0 C3.74061812 1.55935633 6.11465636 3.87054678 8.95703125 6.7265625 C9.42308273 7.1930722 9.88913422 7.65958191 10.36930847 8.14022827 C11.35413345 9.1280674 12.33653381 10.11832895 13.31665039 11.11083984 C14.79208043 12.60433047 16.2751574 14.0898575 17.75976562 15.57421875 C22.43242958 20.2648715 26.96119033 25.02758676 31.2722168 30.05615234 C34.66849956 33.87715041 38.35613232 37.41727104 42 41 C47.04515397 45.96050373 51.95530514 50.94756603 56.54711914 56.33447266 C57.77616796 57.74340746 59.09838849 59.07022468 60.4375 60.375 C62 62 62 62 62 64 C49.13 64 36.26 64 23 64 C23 83.47 23 102.94 23 123 C8.48 123 -6.04 123 -21 123 C-21 103.53 -21 84.06 -21 64 C-33.87 64 -46.74 64 -60 64 C-58.07955197 60.15910395 -56.47414161 58.25238762 -53.45703125 55.296875 C-52.54759766 54.39839844 -51.63816406 53.49992187 -50.70117188 52.57421875 C-49.73865469 51.63243069 -48.77576181 50.69102645 -47.8125 49.75 C-42.26078732 44.30173538 -36.79709837 38.87926658 -31.7409668 32.96582031 C-27.62725686 28.32080666 -23.09410922 24.05897316 -18.671875 19.7109375 C-14.43677301 15.51905084 -10.36961103 11.26098227 -6.50170898 6.7265625 C-4.44471077 4.36156634 -2.24945889 2.18129347 0 0 Z " fill="#FDFAFA" transform="translate(60,0)"/>
</svg>
