<?xml version="1.0" encoding="UTF-8"?>
<svg version="1.1" xmlns="http://www.w3.org/2000/svg" width="172" height="150">
<path d="M0 0 C1.52762815 1.32292086 3.02928522 2.67658319 4.5 4.0625 C5.20511719 4.72636719 5.91023438 5.39023437 6.63671875 6.07421875 C16.44004438 16.17631239 21.92472223 29.41613384 21.8125 43.4375 C21.80686035 44.18209473 21.8012207 44.92668945 21.79541016 45.69384766 C21.66615452 51.57433906 20.88077119 56.63912162 18.5 62.0625 C17.98373047 63.32707031 17.98373047 63.32707031 17.45703125 64.6171875 C10.30978794 79.79133482 -4.09003374 90.81702637 -19.50390625 96.6171875 C-36.94857267 102.80002725 -56.56097255 103.47034388 -74.29296875 97.9375 C-80.23116295 96.31733496 -84.28909529 97.08381988 -89.88671875 99.50390625 C-91.07201172 100.00470703 -92.25730469 100.50550781 -93.47851562 101.02148438 C-94.71532845 101.55486706 -95.95165225 102.08938504 -97.1875 102.625 C-99.62454617 103.67912294 -102.06595503 104.71982721 -104.51171875 105.75390625 C-106.12759888 106.45302124 -106.12759888 106.45302124 -107.77612305 107.16625977 C-110.5 108.0625 -110.5 108.0625 -113.5 107.0625 C-110.2 99.1425 -106.9 91.2225 -103.5 83.0625 C-105.48 80.7525 -107.46 78.4425 -109.5 76.0625 C-119.95298185 62.31481412 -122.81136513 48.98875785 -121.5 32.0625 C-118.83345993 18.02888057 -109.0915594 5.67137657 -97.75 -2.6875 C-68.22027448 -21.99539746 -28.22877045 -21.62479204 0 0 Z M-102.3125 14.9375 C-110.89217714 25.20065989 -112.35753507 35.88429058 -111.72216797 48.83154297 C-110.44174351 61.68925579 -100.95130669 71.26931729 -91.5 79.0625 C-92.82 82.6925 -94.14 86.3225 -95.5 90.0625 C-91.87383799 89.3372676 -89.87532149 88.85084626 -86.75 87.375 C-81.85971305 85.50464772 -78.37504376 86.5821608 -73.5 88.0625 C-52.13689135 94.26871696 -32.20705437 92.56148661 -12.359375 82.46484375 C-0.92959412 75.71233354 6.84026565 65.77061161 11.1328125 53.2109375 C13.22578468 40.9648237 11.67402703 30.06214858 4.890625 19.57421875 C-5.06795926 5.98394894 -20.07417599 -2.98089511 -36.70703125 -5.69140625 C-61.55226806 -9.17825777 -84.79844606 -3.66182651 -102.3125 14.9375 Z " fill="#FDFAFA" transform="translate(121.5,15.9375)"/>
<path d="M0 0 C1.69506693 1.64370126 3.35357006 3.30817976 5 5 C5.56589844 5.56976563 6.13179688 6.13953125 6.71484375 6.7265625 C15.42030095 15.98444477 18.70927705 26.50010144 18.40625 39.03125 C17.58892561 47.01588053 14.1077541 53.40520228 8.0625 58.625 C5.49206439 60.95830983 5.49206439 60.95830983 4.78125 64.2578125 C4.97164368 65.94491209 5.22107726 67.62620655 5.5234375 69.296875 C6.04155812 72.23572311 6.16407744 75.01752757 6.1875 78 C6.20167969 78.9075 6.21585937 79.815 6.23046875 80.75 C6 83 6 83 4 85 C-0.90431938 84.90383687 -4.86640808 83.73121674 -9.46704102 82.03369141 C-16.37038682 79.50705487 -20.95639895 78.51100436 -28 81 C-44.09780596 85.19942764 -60.36244877 82.40702917 -74.984375 74.828125 C-80.08084532 71.73855491 -84.54763038 67.94402821 -89 64 C-84.51236189 61.75618095 -78.74795839 63.08731472 -74 64 C-70.87029901 65.33413536 -67.9446977 66.79252282 -64.95874023 68.40454102 C-53.50821638 74.57144082 -41.42400117 73.97616748 -29 71 C-27.948125 70.608125 -26.89625 70.21625 -25.8125 69.8125 C-18.13193454 67.59366998 -10.18809101 71.42426739 -3 74 C-3.15597656 73.26394531 -3.31195313 72.52789062 -3.47265625 71.76953125 C-3.66730469 70.79371094 -3.86195313 69.81789063 -4.0625 68.8125 C-4.25972656 67.84957031 -4.45695312 66.88664062 -4.66015625 65.89453125 C-5.01696218 62.85552898 -4.97190823 60.89666767 -4 58 C-2.29296875 56.04296875 -2.29296875 56.04296875 -0.1875 54.1875 C5.84667182 48.34832835 8.18542653 43.86288354 8.6875 35.375 C8.47328093 27.10078858 5.39386784 20.89658486 1 14 C0.11828125 13.23816406 0.11828125 13.23816406 -0.78125 12.4609375 C-2 11 -2 11 -1.85546875 8.30078125 C-1.52482422 6.82158203 -1.52482422 6.82158203 -1.1875 5.3125 C-0.86845703 3.82169922 -0.86845703 3.82169922 -0.54296875 2.30078125 C-0.36378906 1.54152344 -0.18460937 0.78226562 0 0 Z " fill="#FDFAFA" transform="translate(154,65)"/>
<path d="M0 0 C3.2856634 2.42853382 4.70758271 4.12274814 6 8 C6 11.6860549 5.31141604 13.14925356 3 16 C0.16568331 18.29809461 -1.33920943 18.98623353 -5 19.0625 C-8.218697 17.92254481 -10.09244284 16.57244731 -12.14453125 13.81640625 C-13.46487864 11.01292891 -13.32248198 8.82949622 -12.703125 5.8359375 C-10.47407566 0.01564201 -5.63837541 -0.90616748 0 0 Z " fill="#FDFAFA" transform="translate(75,49)"/>
<path d="M0 0 C3.22083055 1.87393777 5.495267 3.21180307 6.546875 6.9375 C6.82065326 10.95291442 6.26309961 12.64669481 3.8125 15.9375 C0.91601149 18.06159157 -0.43135013 19 -4 19 C-7.93614016 17.45641562 -9.63226576 16.55160136 -12 13 C-12.55377603 8.09512657 -12.75639171 6.10020612 -9.9375 2 C-6.20163958 -0.54356454 -4.44000949 -0.77894903 0 0 Z " fill="#FDFAFA" transform="translate(104,49)"/>
<path d="M0 0 C3.22083055 1.87393777 5.495267 3.21180307 6.546875 6.9375 C6.82065326 10.95291442 6.26309961 12.64669481 3.8125 15.9375 C0.91601149 18.06159157 -0.43135013 19 -4 19 C-7.93614016 17.45641562 -9.63226576 16.55160136 -12 13 C-12.55377603 8.09512657 -12.75639171 6.10020612 -9.9375 2 C-6.20163958 -0.54356454 -4.44000949 -0.77894903 0 0 Z " fill="#FDFAFA" transform="translate(45,49)"/>
</svg>
