<?xml version="1.0" encoding="UTF-8"?>
<svg version="1.1" xmlns="http://www.w3.org/2000/svg" width="140" height="150">
<path d="M0 0 C1.54494141 0.32484375 1.54494141 0.32484375 3.12109375 0.65625 C4.40113281 0.9553125 5.68117188 1.254375 7 1.5625 C8.7823544 1.94882982 10.56492312 2.33417161 12.34765625 2.71875 C14.25315409 3.14337302 16.15810184 3.57047189 18.0625 4 C18.99126953 4.20488037 19.92003906 4.40976074 20.87695312 4.62084961 C21.75416016 4.82718018 22.63136719 5.03351074 23.53515625 5.24609375 C24.322854 5.42712646 25.11055176 5.60815918 25.92211914 5.79467773 C28.31920118 6.68045179 29.45661078 7.53280843 31 9.5625 C31.36528977 12.9718712 31.6140629 15.44273824 29.9375 18.5 C25.20479089 21.09535661 19.08863204 19.39329707 14 18.5625 C27.89438019 30.88815984 43.02689672 37.18164332 61.5625 36.5625 C78.01853967 34.93250239 92.61221597 27.5940379 104 15.5625 C105.69597564 13.3135695 107.23564669 11.039051 108.7109375 8.640625 C110.02941009 6.51508737 111.474393 4.5431126 113 2.5625 C117.71403788 3.04189368 121.66579301 3.53084048 126 5.5625 C121.2298444 21.24897322 108.50640087 32.95402472 95 41.5625 C77.9995164 50.46103884 57.23342762 54.25006945 38.39868164 49.12451172 C35.18048239 48.09971977 32.11436669 46.87715748 29 45.5625 C27.78957031 45.06621094 26.57914063 44.56992188 25.33203125 44.05859375 C16.3544959 39.99569607 9.83712163 34.48343923 3 27.5625 C2.67 27.2325 2.34 26.9025 2 26.5625 C1.91363281 27.31015625 1.82726563 28.0578125 1.73828125 28.828125 C0.5927062 36.85766019 0.5927062 36.85766019 -2.3125 40.3125 C-5 41.5625 -5 41.5625 -7.625 41.4375 C-10 40.5625 -10 40.5625 -13 38.5625 C-14.38336214 30.69632314 -12.74186608 21.8654533 -11.8125 14 C-11.71179199 13.03610352 -11.61108398 12.07220703 -11.50732422 11.07910156 C-10.93981819 6.74528032 -10.59553483 4.25611103 -7.69921875 0.8828125 C-4.56356279 -0.65098159 -3.37850392 -0.72899266 0 0 Z " fill="#FDFAFA" transform="translate(13,99.4375)"/>
<path d="M0 0 C1.21042969 0.49628906 2.42085938 0.99257812 3.66796875 1.50390625 C12.6455041 5.56680393 19.16287837 11.07906077 26 18 C26.33 18.33 26.66 18.66 27 19 C27.08636719 18.25234375 27.17273438 17.5046875 27.26171875 16.734375 C28.4072938 8.70483981 28.4072938 8.70483981 31.3125 5.25 C34 4 34 4 36.625 4.0625 C39.19689373 5.07772121 40.29125284 5.85209597 42 8 C43.13727395 15.01692218 41.66440144 22.81050798 40.8125 29.8125 C40.71130859 30.82248047 40.61011719 31.83246094 40.50585938 32.87304688 C39.93859556 37.51847754 39.45816172 40.35826244 36.69921875 44.22265625 C34 46 34 46 31.625 46.2265625 C30.325625 45.92878906 30.325625 45.92878906 29 45.625 C27.97003906 45.39941406 26.94007812 45.17382812 25.87890625 44.94140625 C24.59886719 44.63074219 23.31882812 44.32007813 22 44 C20.21801215 43.61068955 18.43541063 43.22418193 16.65234375 42.83984375 C14.74688124 42.41637136 12.84193363 41.99057566 10.9375 41.5625 C10.00873047 41.3577002 9.07996094 41.15290039 8.12304688 40.94189453 C7.24583984 40.7354834 6.36863281 40.52907227 5.46484375 40.31640625 C4.677146 40.13537354 3.88944824 39.95434082 3.07788086 39.76782227 C0.68079882 38.88204821 -0.45661078 38.02969157 -2 36 C-2.36528977 32.5906288 -2.6140629 30.11976176 -0.9375 27.0625 C3.79520911 24.46714339 9.91136796 26.16920293 15 27 C1.07118112 14.6437897 -14.10116534 8.316752 -32.6875 9.0625 C-49.0624978 10.69655965 -63.9464263 17.63437609 -75 30 C-78.2994505 34.47667863 -81.18011445 39.21164361 -84 44 C-85.98260599 43.57835981 -87.96107245 43.13721222 -89.9375 42.6875 C-91.03964844 42.44386719 -92.14179687 42.20023438 -93.27734375 41.94921875 C-94.17582031 41.63597656 -95.07429688 41.32273438 -96 41 C-97 38 -97 38 -96.171875 35.72265625 C-86.35583583 17.35803351 -69.8560865 3.93575729 -50.0625 -2.3125 C-33.46229043 -7.18765448 -15.95377151 -6.73451365 0 0 Z " fill="#FDFAFA" transform="translate(98,5)"/>
</svg>
